<?xml version="1.0" encoding="iso-8859-1"?>
<!-- Generator: Adobe Illustrator 16.0.0, SVG Export Plug-In . SVG Version: 6.00 Build 0)  -->
<!DOCTYPE svg PUBLIC "-//W3C//DTD SVG 1.1//EN" "http://www.w3.org/Graphics/SVG/1.1/DTD/svg11.dtd">
<svg xmlns="http://www.w3.org/2000/svg" xmlns:xlink="http://www.w3.org/1999/xlink" version="1.1" id="Capa_1" x="0px" y="0px" width="512px" height="512px" viewBox="0 0 60.31 60.311" style="enable-background:new 0 0 60.31 60.311;" xml:space="preserve">
<g>
	<g id="_x33_4">
		<g>
			<path d="M59.033,0c-0.681,0-1.229,0.551-1.229,1.23v6.097l-9.212,4.811c-1.279-1.656-3.277-2.729-5.525-2.729     c-3.857,0-6.994,3.142-6.994,7.003c0,2.409,1.221,4.538,3.074,5.799l-3.058,6.895c-0.537-0.132-1.095-0.21-1.671-0.21     c-3.856,0-6.993,3.143-6.993,7.006c0,0.576,0.078,1.135,0.21,1.672l-6.884,3.064c-1.259-1.857-3.384-3.08-5.79-3.08     c-3.854,0-6.99,3.142-6.99,7.004c0,2.349,1.163,4.424,2.938,5.695l-3.59,7.592H1.279c-0.679,0-1.229,0.549-1.229,1.23     c0,0.681,0.55,1.23,1.229,1.23h54.375c2.541,0,4.606-2.069,4.606-4.615V1.23C60.261,0.551,59.712,0,59.033,0z M43.066,11.871     c1.736,0,3.229,0.992,3.991,2.43c0.005,0.008,0.003,0.017,0.007,0.024c0.008,0.014,0.02,0.023,0.025,0.036     c0.316,0.619,0.512,1.309,0.512,2.051c0,2.505-2.033,4.543-4.535,4.543c-2.5,0-4.535-2.038-4.535-4.543     S40.566,11.871,43.066,11.871z M34.418,31.357c2.501,0,4.536,2.039,4.536,4.543c0,2.506-2.035,4.541-4.536,4.541     s-4.536-2.035-4.536-4.541C29.882,33.396,31.917,31.357,34.418,31.357z M14.961,40.02c2.501,0,4.536,2.039,4.536,4.543     c0,2.506-2.035,4.541-4.536,4.541c-0.69,0-1.338-0.166-1.924-0.444c-0.004-0.001-0.006-0.005-0.01-0.007     c-0.002-0.002-0.005-0.002-0.007-0.002c-1.527-0.73-2.593-2.28-2.593-4.088C10.428,42.059,12.461,40.02,14.961,40.02z      M55.654,57.85H10.038l3.091-6.535c0.585,0.158,1.197,0.252,1.832,0.252c3.857,0,6.994-3.143,6.994-7.004     c0-0.578-0.078-1.136-0.21-1.674l6.884-3.062c1.26,1.855,3.384,3.078,5.789,3.078c3.856,0,6.993-3.143,6.993-7.002     c0-2.41-1.221-4.538-3.074-5.8l3.059-6.895c0.536,0.132,1.094,0.21,1.67,0.21c3.856,0,6.993-3.142,6.993-7.005     c0-0.729-0.112-1.434-0.319-2.096l8.064-4.213v45.592C57.804,56.883,56.839,57.85,55.654,57.85z" fill="#FFFFFF"/>
		</g>
	</g>
</g>
<g>
</g>
<g>
</g>
<g>
</g>
<g>
</g>
<g>
</g>
<g>
</g>
<g>
</g>
<g>
</g>
<g>
</g>
<g>
</g>
<g>
</g>
<g>
</g>
<g>
</g>
<g>
</g>
<g>
</g>
</svg>
