<?xml version="1.0" encoding="iso-8859-1"?>
<!-- Generator: Adobe Illustrator 16.0.0, SVG Export Plug-In . SVG Version: 6.00 Build 0)  -->
<!DOCTYPE svg PUBLIC "-//W3C//DTD SVG 1.1//EN" "http://www.w3.org/Graphics/SVG/1.1/DTD/svg11.dtd">
<svg xmlns="http://www.w3.org/2000/svg" xmlns:xlink="http://www.w3.org/1999/xlink" version="1.1" id="Capa_1" x="0px" y="0px" width="512px" height="512px" viewBox="0 0 54.535 54.536" style="enable-background:new 0 0 54.535 54.536;" xml:space="preserve">
<g>
	<g id="_x31_6">
		<g>
			<path d="M50.262,5.502H4.274C1.914,5.502,0,7.419,0,9.784V44.75c0,2.365,1.914,4.282,4.274,4.282H50.26     c2.361,0,4.275-1.917,4.275-4.282V9.784C54.536,7.419,52.622,5.502,50.262,5.502z M52.078,44.75c0,1.004-0.814,1.82-1.816,1.82     H4.274c-1.002,0-1.817-0.816-1.817-1.82v-7.407l15.107-6.536l11.338,10.654c0.231,0.219,0.535,0.333,0.84,0.333     c0.188,0,0.375-0.042,0.55-0.13l21.786-10.917V44.75z M52.078,28.063c-0.098,0.021-0.196,0.031-0.29,0.078L29.958,39.08     l-11.301-10.62c-0.358-0.335-0.881-0.428-1.327-0.23L2.457,34.663V9.784c0-1.003,0.815-1.82,1.817-1.82H50.26     c1.004,0,1.817,0.817,1.817,1.82L52.078,28.063L52.078,28.063z M33.309,19.415c-0.384-0.337-0.929-0.402-1.379-0.167L23.7,23.549     c-0.355,0.187-0.598,0.534-0.65,0.932c-0.051,0.399,0.094,0.797,0.392,1.068l7.23,6.622c0.23,0.212,0.528,0.322,0.828,0.322     c0.197,0,0.396-0.048,0.576-0.146l8.355-4.449c0.358-0.189,0.598-0.542,0.646-0.943c0.046-0.401-0.107-0.8-0.41-1.067     L33.309,19.415z M31.688,29.77l-5.296-4.852l5.929-3.098l5.388,4.741L31.688,29.77z M44.425,12.95     c-2.558,0-4.639,2.083-4.639,4.644c0,2.562,2.081,4.646,4.639,4.646s4.638-2.085,4.638-4.646     C49.062,15.033,46.98,12.95,44.425,12.95z M44.425,19.777c-1.202,0-2.181-0.979-2.181-2.185c0-1.203,0.979-2.183,2.181-2.183     c1.203,0,2.181,0.979,2.181,2.183C46.604,18.798,45.628,19.777,44.425,19.777z" fill="#FFFFFF"/>
		</g>
	</g>
</g>
<g>
</g>
<g>
</g>
<g>
</g>
<g>
</g>
<g>
</g>
<g>
</g>
<g>
</g>
<g>
</g>
<g>
</g>
<g>
</g>
<g>
</g>
<g>
</g>
<g>
</g>
<g>
</g>
<g>
</g>
</svg>
