<?xml version="1.0" encoding="iso-8859-1"?>
<!-- Generator: Adobe Illustrator 16.0.0, SVG Export Plug-In . SVG Version: 6.00 Build 0)  -->
<!DOCTYPE svg PUBLIC "-//W3C//DTD SVG 1.1//EN" "http://www.w3.org/Graphics/SVG/1.1/DTD/svg11.dtd">
<svg xmlns="http://www.w3.org/2000/svg" xmlns:xlink="http://www.w3.org/1999/xlink" version="1.1" id="Capa_1" x="0px" y="0px" width="512px" height="512px" viewBox="0 0 71.896 71.896" style="enable-background:new 0 0 71.896 71.896;" xml:space="preserve">
<g>
	<g id="_x33_3">
		<g>
			<path d="M56.495,28.256c-3.229,0-5.793,3.08-5.902,3.212c-0.186,0.229-0.405,0.416-0.588,0.551     c-0.002-0.038-0.006-0.082-0.006-0.128V17.582c0-1.55-1.26-2.81-2.808-2.81H32.882c-0.182,0-0.313-0.051-0.345,0     c0.047-0.25,0.341-0.824,0.766-1.173c0.131-0.108,3.208-2.681,3.208-5.914C36.512,3.447,33.068,0,28.837,0     s-7.674,3.447-7.674,7.686c0,3.233,3.077,5.806,3.209,5.914c0.458,0.375,0.763,1.017,0.818,1.055     c-0.033,0.036-0.179,0.118-0.398,0.118H10.536c-1.548,0-2.807,1.26-2.807,2.81v14.309c0,1.551,1.259,2.811,2.9,2.811     c1.232,0,2.75-0.719,3.529-1.671c0.019-0.021,1.956-2.312,4.003-2.312c2.876,0,5.217,2.344,5.217,5.224     c0,2.881-2.341,5.225-5.217,5.225c-1.71,0-3.472-1.671-4.002-2.312c-0.78-0.953-2.298-1.672-3.624-1.672     c-1.548,0-2.807,1.26-2.807,2.811v14.309c0,1.551,1.259,2.812,2.807,2.812h14.284c0.179-0.002,0.309,0.049,0.344,0     c-0.048,0.25-0.342,0.82-0.764,1.166c-0.132,0.107-3.234,2.681-3.234,5.929c0,4.237,3.442,7.685,7.674,7.685     c4.23,0,7.674-3.446,7.674-7.685c0-3.224-3.052-5.789-3.182-5.896c-0.462-0.385-0.767-1.033-0.818-1.082     c0.032-0.037,0.178-0.117,0.396-0.117h14.283c1.548,0,2.808-1.262,2.808-2.812V39.992c0-0.043,0.002-0.084,0.006-0.122     c0.19,0.137,0.406,0.321,0.59,0.545c0.107,0.133,2.672,3.212,5.9,3.212c4.23,0,7.674-3.447,7.674-7.686     S60.726,28.256,56.495,28.256z M56.495,41.166c-1.709,0-3.472-1.671-4.002-2.312c-0.658-0.806-1.828-1.67-2.836-1.67     c-1.205,0-2.115,1.209-2.115,2.81v14.309c0,0.19-0.16,0.351-0.351,0.351H32.909c-1.574,0-2.807,1.062-2.807,2.418     c0,1.156,0.836,2.453,1.659,3.139c0.639,0.534,2.293,2.294,2.293,4.001c0,2.88-2.34,5.224-5.216,5.224     c-2.877,0-5.217-2.344-5.217-5.224c0-1.72,1.685-3.485,2.332-4.022c0.831-0.68,1.674-1.974,1.674-3.127     c0-1.349-1.233-2.406-2.809-2.406H10.536c-0.189,0-0.349-0.16-0.349-0.352V39.992c0-0.189,0.159-0.35,0.442-0.35     c0.504,0,1.312,0.383,1.631,0.771c0.107,0.133,2.672,3.212,5.901,3.212c4.231,0,7.674-3.446,7.674-7.686     c0-4.239-3.442-7.686-7.674-7.686c-3.229,0-5.794,3.08-5.902,3.212c-0.318,0.39-1.126,0.771-1.724,0.771     c-0.189,0-0.349-0.158-0.349-0.349V17.582c0-0.189,0.159-0.348,0.349-0.348h14.258c1.549,0,2.808-1.08,2.808-2.409     c0-1.156-0.84-2.449-1.666-3.128c-0.643-0.533-2.313-2.298-2.313-4.012c0-2.88,2.34-5.224,5.217-5.224     c2.876,0,5.216,2.344,5.216,5.224c0,1.714-1.669,3.479-2.309,4.01c-0.83,0.681-1.67,1.977-1.67,3.13     c0,1.329,1.26,2.409,2.808,2.409h14.309c0.189,0,0.352,0.158,0.352,0.348v14.309c0,1.602,0.908,2.811,2.113,2.811     c1.01,0,2.178-0.865,2.836-1.671c0.02-0.021,1.955-2.312,4.004-2.312c2.875,0,5.215,2.344,5.215,5.224     C61.71,38.822,59.372,41.166,56.495,41.166z" fill="#FFFFFF"/>
		</g>
	</g>
</g>
<g>
</g>
<g>
</g>
<g>
</g>
<g>
</g>
<g>
</g>
<g>
</g>
<g>
</g>
<g>
</g>
<g>
</g>
<g>
</g>
<g>
</g>
<g>
</g>
<g>
</g>
<g>
</g>
<g>
</g>
</svg>
